<mxfile host="app.diagrams.net" agent="Mozilla/5.0 (Windows NT 10.0; Win64; x64) AppleWebKit/537.36 (KHTML, like Gecko) Chrome/130.0.0.0 YaBrowser/24.12.0.0 Safari/537.36" version="26.0.5">
  <diagram name="Страница — 1" id="jNJPfbgmDTmKU45l6zFW">
    <mxGraphModel dx="2241" dy="769" grid="1" gridSize="10" guides="1" tooltips="1" connect="1" arrows="1" fold="1" page="1" pageScale="1" pageWidth="827" pageHeight="1169" math="0" shadow="0">
      <root>
        <mxCell id="0" />
        <mxCell id="1" parent="0" />
        <mxCell id="2x892HhlaghSRIfymsy8-1" value="Начало" style="ellipse;whiteSpace=wrap;html=1;fontFamily=Times New Roman;fontSize=14;" parent="1" vertex="1">
          <mxGeometry x="160" y="40" width="160" height="60" as="geometry" />
        </mxCell>
        <mxCell id="2x892HhlaghSRIfymsy8-2" value="&lt;p class=&quot;MsoNormal&quot;&gt;&lt;span&gt;&quot;&lt;font&gt;Вводится римское число, соответствующее значению часа на циферблате&quot;&lt;/font&gt;&lt;/span&gt;&lt;/p&gt;" style="shape=document;whiteSpace=wrap;html=1;boundedLbl=1;fontFamily=Times New Roman;fontSize=14;" parent="1" vertex="1">
          <mxGeometry x="160" y="140" width="160" height="100" as="geometry" />
        </mxCell>
        <mxCell id="2x892HhlaghSRIfymsy8-3" value="&lt;span style=&quot;text-align: start; white-space-collapse: preserve; background-color: rgba(0, 0, 0, 0.05);&quot;&gt;&lt;font&gt;RomanNumeral =&lt;/font&gt;&lt;/span&gt;&lt;div&gt;&lt;span style=&quot;text-align: start; white-space-collapse: preserve; background-color: rgba(0, 0, 0, 0.05);&quot;&gt;&lt;font&gt;Console.Readline()&lt;/font&gt;&lt;/span&gt;&lt;/div&gt;" style="rounded=0;whiteSpace=wrap;html=1;fontFamily=Times New Roman;fontSize=14;" parent="1" vertex="1">
          <mxGeometry x="160" y="280" width="160" height="60" as="geometry" />
        </mxCell>
        <mxCell id="2x892HhlaghSRIfymsy8-4" value="RomanNumeral?" style="rhombus;whiteSpace=wrap;html=1;fontFamily=Times New Roman;fontSize=14;" parent="1" vertex="1">
          <mxGeometry x="160" y="380" width="160" height="70" as="geometry" />
        </mxCell>
        <mxCell id="2x892HhlaghSRIfymsy8-5" value="Восток" style="shape=document;whiteSpace=wrap;html=1;boundedLbl=1;fontFamily=Times New Roman;fontSize=14;" parent="1" vertex="1">
          <mxGeometry x="165" y="530" width="150" height="80" as="geometry" />
        </mxCell>
        <mxCell id="2x892HhlaghSRIfymsy8-6" value="Север&amp;nbsp;" style="shape=document;whiteSpace=wrap;html=1;boundedLbl=1;fontFamily=Times New Roman;fontSize=14;" parent="1" vertex="1">
          <mxGeometry x="-40" y="530" width="160" height="80" as="geometry" />
        </mxCell>
        <mxCell id="2x892HhlaghSRIfymsy8-7" value="Юг" style="shape=document;whiteSpace=wrap;html=1;boundedLbl=1;fontFamily=Times New Roman;fontSize=14;" parent="1" vertex="1">
          <mxGeometry x="354" y="530" width="160" height="80" as="geometry" />
        </mxCell>
        <mxCell id="2x892HhlaghSRIfymsy8-8" value="Запад" style="shape=document;whiteSpace=wrap;html=1;boundedLbl=1;fontFamily=Times New Roman;fontSize=14;" parent="1" vertex="1">
          <mxGeometry x="560" y="530" width="160" height="80" as="geometry" />
        </mxCell>
        <mxCell id="2x892HhlaghSRIfymsy8-9" value="" style="endArrow=none;html=1;rounded=0;fontFamily=Times New Roman;fontSize=14;" parent="1" edge="1">
          <mxGeometry width="50" height="50" relative="1" as="geometry">
            <mxPoint x="240" y="490" as="sourcePoint" />
            <mxPoint x="240" y="450" as="targetPoint" />
          </mxGeometry>
        </mxCell>
        <mxCell id="2x892HhlaghSRIfymsy8-11" value="" style="endArrow=none;html=1;rounded=0;fontFamily=Times New Roman;fontSize=14;" parent="1" edge="1">
          <mxGeometry width="50" height="50" relative="1" as="geometry">
            <mxPoint x="40" y="490" as="sourcePoint" />
            <mxPoint x="640" y="490" as="targetPoint" />
          </mxGeometry>
        </mxCell>
        <mxCell id="2x892HhlaghSRIfymsy8-16" value="" style="endArrow=classic;html=1;rounded=0;fontFamily=Times New Roman;fontSize=14;" parent="1" target="2x892HhlaghSRIfymsy8-2" edge="1">
          <mxGeometry width="50" height="50" relative="1" as="geometry">
            <mxPoint x="240" y="100" as="sourcePoint" />
            <mxPoint x="290" y="50" as="targetPoint" />
          </mxGeometry>
        </mxCell>
        <mxCell id="2x892HhlaghSRIfymsy8-18" value="" style="endArrow=classic;html=1;rounded=0;fontFamily=Times New Roman;fontSize=14;" parent="1" target="2x892HhlaghSRIfymsy8-3" edge="1">
          <mxGeometry width="50" height="50" relative="1" as="geometry">
            <mxPoint x="240" y="226" as="sourcePoint" />
            <mxPoint x="290" y="176" as="targetPoint" />
          </mxGeometry>
        </mxCell>
        <mxCell id="2x892HhlaghSRIfymsy8-19" value="" style="endArrow=classic;html=1;rounded=0;fontFamily=Times New Roman;fontSize=14;" parent="1" target="2x892HhlaghSRIfymsy8-4" edge="1">
          <mxGeometry width="50" height="50" relative="1" as="geometry">
            <mxPoint x="240" y="340" as="sourcePoint" />
            <mxPoint x="290" y="290" as="targetPoint" />
          </mxGeometry>
        </mxCell>
        <mxCell id="2x892HhlaghSRIfymsy8-21" value="" style="endArrow=classic;html=1;rounded=0;fontFamily=Times New Roman;fontSize=14;" parent="1" target="2x892HhlaghSRIfymsy8-5" edge="1">
          <mxGeometry width="50" height="50" relative="1" as="geometry">
            <mxPoint x="240" y="490" as="sourcePoint" />
            <mxPoint x="290" y="440" as="targetPoint" />
          </mxGeometry>
        </mxCell>
        <mxCell id="2x892HhlaghSRIfymsy8-23" value="" style="endArrow=classic;html=1;rounded=0;entryX=0.5;entryY=0;entryDx=0;entryDy=0;fontFamily=Times New Roman;fontSize=14;" parent="1" target="2x892HhlaghSRIfymsy8-7" edge="1">
          <mxGeometry width="50" height="50" relative="1" as="geometry">
            <mxPoint x="434" y="490" as="sourcePoint" />
            <mxPoint x="439" y="530" as="targetPoint" />
          </mxGeometry>
        </mxCell>
        <mxCell id="2x892HhlaghSRIfymsy8-27" value="" style="endArrow=classic;html=1;rounded=0;fontFamily=Times New Roman;fontSize=14;" parent="1" target="2x892HhlaghSRIfymsy8-6" edge="1">
          <mxGeometry width="50" height="50" relative="1" as="geometry">
            <mxPoint x="40" y="490" as="sourcePoint" />
            <mxPoint x="90" y="440" as="targetPoint" />
          </mxGeometry>
        </mxCell>
        <mxCell id="2x892HhlaghSRIfymsy8-28" value="" style="endArrow=classic;html=1;rounded=0;fontFamily=Times New Roman;fontSize=14;" parent="1" target="2x892HhlaghSRIfymsy8-8" edge="1">
          <mxGeometry width="50" height="50" relative="1" as="geometry">
            <mxPoint x="640" y="490" as="sourcePoint" />
            <mxPoint x="690" y="440" as="targetPoint" />
          </mxGeometry>
        </mxCell>
        <mxCell id="2x892HhlaghSRIfymsy8-29" value="XII" style="text;html=1;align=center;verticalAlign=middle;whiteSpace=wrap;rounded=0;fontFamily=Times New Roman;fontSize=14;" parent="1" vertex="1">
          <mxGeometry x="-70" y="500" width="60" height="30" as="geometry" />
        </mxCell>
        <mxCell id="2x892HhlaghSRIfymsy8-30" value="III" style="text;html=1;align=center;verticalAlign=middle;whiteSpace=wrap;rounded=0;fontFamily=Times New Roman;fontSize=14;" parent="1" vertex="1">
          <mxGeometry x="140" y="500" width="60" height="30" as="geometry" />
        </mxCell>
        <mxCell id="2x892HhlaghSRIfymsy8-31" value="VI" style="text;html=1;align=center;verticalAlign=middle;whiteSpace=wrap;rounded=0;fontFamily=Times New Roman;fontSize=14;" parent="1" vertex="1">
          <mxGeometry x="330" y="500" width="60" height="30" as="geometry" />
        </mxCell>
        <mxCell id="2x892HhlaghSRIfymsy8-32" value="XI" style="text;html=1;align=center;verticalAlign=middle;whiteSpace=wrap;rounded=0;fontFamily=Times New Roman;fontSize=14;" parent="1" vertex="1">
          <mxGeometry x="537" y="500" width="60" height="30" as="geometry" />
        </mxCell>
        <mxCell id="69vqVkT_wPmjHlMa8236-1" value="" style="endArrow=classic;html=1;rounded=0;fontFamily=Times New Roman;fontSize=14;" parent="1" edge="1">
          <mxGeometry width="50" height="50" relative="1" as="geometry">
            <mxPoint x="640" y="490" as="sourcePoint" />
            <mxPoint x="800" y="490" as="targetPoint" />
          </mxGeometry>
        </mxCell>
        <mxCell id="69vqVkT_wPmjHlMa8236-2" value="1" style="ellipse;whiteSpace=wrap;html=1;aspect=fixed;fontFamily=Times New Roman;fontSize=14;" parent="1" vertex="1">
          <mxGeometry x="800" y="470" width="40" height="40" as="geometry" />
        </mxCell>
        <mxCell id="69vqVkT_wPmjHlMa8236-3" value="1" style="ellipse;whiteSpace=wrap;html=1;aspect=fixed;fontFamily=Times New Roman;fontSize=14;" parent="1" vertex="1">
          <mxGeometry x="-30" y="760" width="40" height="40" as="geometry" />
        </mxCell>
        <mxCell id="69vqVkT_wPmjHlMa8236-4" value="Север - Северо - Восток" style="shape=document;whiteSpace=wrap;html=1;boundedLbl=1;fontFamily=Times New Roman;fontSize=14;" parent="1" vertex="1">
          <mxGeometry x="70" y="820" width="160" height="80" as="geometry" />
        </mxCell>
        <mxCell id="69vqVkT_wPmjHlMa8236-6" value="Северо - Восток" style="shape=document;whiteSpace=wrap;html=1;boundedLbl=1;fontFamily=Times New Roman;fontSize=14;" parent="1" vertex="1">
          <mxGeometry x="300" y="820" width="160" height="80" as="geometry" />
        </mxCell>
        <mxCell id="69vqVkT_wPmjHlMa8236-8" value="" style="endArrow=classic;html=1;rounded=0;fontFamily=Times New Roman;fontSize=14;entryX=0.5;entryY=0;entryDx=0;entryDy=0;" parent="1" edge="1" target="69vqVkT_wPmjHlMa8236-9">
          <mxGeometry width="50" height="50" relative="1" as="geometry">
            <mxPoint x="240" y="600" as="sourcePoint" />
            <mxPoint x="240" y="640" as="targetPoint" />
          </mxGeometry>
        </mxCell>
        <mxCell id="69vqVkT_wPmjHlMa8236-9" value="2" style="ellipse;whiteSpace=wrap;html=1;aspect=fixed;fontFamily=Times New Roman;fontSize=14;" parent="1" vertex="1">
          <mxGeometry x="220" y="653" width="40" height="40" as="geometry" />
        </mxCell>
        <mxCell id="69vqVkT_wPmjHlMa8236-11" value="" style="endArrow=none;html=1;rounded=0;fontFamily=Times New Roman;fontSize=14;" parent="1" edge="1">
          <mxGeometry width="50" height="50" relative="1" as="geometry">
            <mxPoint x="40" y="620" as="sourcePoint" />
            <mxPoint x="40" y="600" as="targetPoint" />
          </mxGeometry>
        </mxCell>
        <mxCell id="69vqVkT_wPmjHlMa8236-12" value="" style="endArrow=none;html=1;rounded=0;fontFamily=Times New Roman;fontSize=14;" parent="1" edge="1">
          <mxGeometry width="50" height="50" relative="1" as="geometry">
            <mxPoint x="440" y="620" as="sourcePoint" />
            <mxPoint x="440" y="600" as="targetPoint" />
          </mxGeometry>
        </mxCell>
        <mxCell id="69vqVkT_wPmjHlMa8236-13" value="" style="endArrow=none;html=1;rounded=0;fontFamily=Times New Roman;fontSize=14;" parent="1" edge="1">
          <mxGeometry width="50" height="50" relative="1" as="geometry">
            <mxPoint x="640" y="620" as="sourcePoint" />
            <mxPoint x="640" y="600" as="targetPoint" />
          </mxGeometry>
        </mxCell>
        <mxCell id="69vqVkT_wPmjHlMa8236-15" value="" style="endArrow=classic;html=1;rounded=0;fontFamily=Times New Roman;fontSize=14;" parent="1" edge="1">
          <mxGeometry width="50" height="50" relative="1" as="geometry">
            <mxPoint x="40" y="620" as="sourcePoint" />
            <mxPoint x="240" y="620" as="targetPoint" />
          </mxGeometry>
        </mxCell>
        <mxCell id="69vqVkT_wPmjHlMa8236-17" value="" style="endArrow=classic;html=1;rounded=0;fontFamily=Times New Roman;fontSize=14;" parent="1" edge="1">
          <mxGeometry width="50" height="50" relative="1" as="geometry">
            <mxPoint x="640" y="620" as="sourcePoint" />
            <mxPoint x="440" y="620" as="targetPoint" />
          </mxGeometry>
        </mxCell>
        <mxCell id="69vqVkT_wPmjHlMa8236-18" value="" style="endArrow=classic;html=1;rounded=0;fontFamily=Times New Roman;fontSize=14;" parent="1" edge="1">
          <mxGeometry width="50" height="50" relative="1" as="geometry">
            <mxPoint x="440" y="620" as="sourcePoint" />
            <mxPoint x="240" y="620" as="targetPoint" />
          </mxGeometry>
        </mxCell>
        <mxCell id="69vqVkT_wPmjHlMa8236-19" value="Юго - Восток" style="shape=document;whiteSpace=wrap;html=1;boundedLbl=1;fontFamily=Times New Roman;fontSize=14;" parent="1" vertex="1">
          <mxGeometry x="530" y="820" width="160" height="80" as="geometry" />
        </mxCell>
        <mxCell id="69vqVkT_wPmjHlMa8236-21" value="Юг - Юго - Восток" style="shape=document;whiteSpace=wrap;html=1;boundedLbl=1;fontFamily=Times New Roman;fontSize=14;" parent="1" vertex="1">
          <mxGeometry x="760" y="820" width="160" height="80" as="geometry" />
        </mxCell>
        <mxCell id="69vqVkT_wPmjHlMa8236-23" value="3" style="ellipse;whiteSpace=wrap;html=1;aspect=fixed;fontFamily=Times New Roman;fontSize=14;" parent="1" vertex="1">
          <mxGeometry x="960" y="760" width="40" height="40" as="geometry" />
        </mxCell>
        <mxCell id="69vqVkT_wPmjHlMa8236-25" value="3" style="ellipse;whiteSpace=wrap;html=1;aspect=fixed;fontFamily=Times New Roman;fontSize=14;" parent="1" vertex="1">
          <mxGeometry x="-30" y="960" width="40" height="40" as="geometry" />
        </mxCell>
        <mxCell id="69vqVkT_wPmjHlMa8236-26" value="Юг - Юго - Запад" style="shape=document;whiteSpace=wrap;html=1;boundedLbl=1;fontFamily=Times New Roman;fontSize=14;" parent="1" vertex="1">
          <mxGeometry x="70" y="1020" width="160" height="80" as="geometry" />
        </mxCell>
        <mxCell id="69vqVkT_wPmjHlMa8236-28" value="&amp;nbsp;Юго - Запад" style="shape=document;whiteSpace=wrap;html=1;boundedLbl=1;fontFamily=Times New Roman;fontSize=14;" parent="1" vertex="1">
          <mxGeometry x="300" y="1020" width="160" height="80" as="geometry" />
        </mxCell>
        <mxCell id="69vqVkT_wPmjHlMa8236-30" value="Северо - Запад" style="shape=document;whiteSpace=wrap;html=1;boundedLbl=1;fontFamily=Times New Roman;fontSize=14;" parent="1" vertex="1">
          <mxGeometry x="530" y="1020" width="160" height="80" as="geometry" />
        </mxCell>
        <mxCell id="69vqVkT_wPmjHlMa8236-32" value="Северо - Запад" style="shape=document;whiteSpace=wrap;html=1;boundedLbl=1;fontFamily=Times New Roman;fontSize=14;" parent="1" vertex="1">
          <mxGeometry x="760" y="1020" width="160" height="80" as="geometry" />
        </mxCell>
        <mxCell id="69vqVkT_wPmjHlMa8236-38" value="" style="endArrow=classic;html=1;rounded=0;fontFamily=Times New Roman;fontSize=14;" parent="1" edge="1">
          <mxGeometry width="50" height="50" relative="1" as="geometry">
            <mxPoint x="840" y="920" as="sourcePoint" />
            <mxPoint x="610" y="920" as="targetPoint" />
          </mxGeometry>
        </mxCell>
        <mxCell id="69vqVkT_wPmjHlMa8236-39" value="" style="endArrow=classic;html=1;rounded=0;fontFamily=Times New Roman;fontSize=14;" parent="1" edge="1">
          <mxGeometry width="50" height="50" relative="1" as="geometry">
            <mxPoint x="610" y="920" as="sourcePoint" />
            <mxPoint x="380" y="920" as="targetPoint" />
          </mxGeometry>
        </mxCell>
        <mxCell id="69vqVkT_wPmjHlMa8236-40" value="" style="endArrow=classic;html=1;rounded=0;fontFamily=Times New Roman;fontSize=14;" parent="1" edge="1">
          <mxGeometry width="50" height="50" relative="1" as="geometry">
            <mxPoint x="380" y="920" as="sourcePoint" />
            <mxPoint x="150" y="920" as="targetPoint" />
          </mxGeometry>
        </mxCell>
        <mxCell id="69vqVkT_wPmjHlMa8236-46" value="" style="endArrow=classic;html=1;rounded=0;fontFamily=Times New Roman;fontSize=14;" parent="1" edge="1">
          <mxGeometry width="50" height="50" relative="1" as="geometry">
            <mxPoint x="840" y="1119.5" as="sourcePoint" />
            <mxPoint x="610" y="1119.5" as="targetPoint" />
          </mxGeometry>
        </mxCell>
        <mxCell id="69vqVkT_wPmjHlMa8236-47" value="" style="endArrow=classic;html=1;rounded=0;fontFamily=Times New Roman;fontSize=14;" parent="1" edge="1">
          <mxGeometry width="50" height="50" relative="1" as="geometry">
            <mxPoint x="610" y="1119.5" as="sourcePoint" />
            <mxPoint x="380" y="1119.5" as="targetPoint" />
          </mxGeometry>
        </mxCell>
        <mxCell id="69vqVkT_wPmjHlMa8236-48" value="" style="endArrow=classic;html=1;rounded=0;fontFamily=Times New Roman;fontSize=14;" parent="1" edge="1">
          <mxGeometry width="50" height="50" relative="1" as="geometry">
            <mxPoint x="380" y="1120" as="sourcePoint" />
            <mxPoint x="150" y="1120" as="targetPoint" />
          </mxGeometry>
        </mxCell>
        <mxCell id="69vqVkT_wPmjHlMa8236-50" value="I" style="text;html=1;align=center;verticalAlign=middle;whiteSpace=wrap;rounded=0;fontFamily=Times New Roman;fontSize=14;" parent="1" vertex="1">
          <mxGeometry x="50" y="790" width="60" height="30" as="geometry" />
        </mxCell>
        <mxCell id="69vqVkT_wPmjHlMa8236-52" value="II" style="text;html=1;align=center;verticalAlign=middle;resizable=0;points=[];autosize=1;strokeColor=none;fillColor=none;fontFamily=Times New Roman;fontSize=14;" parent="1" vertex="1">
          <mxGeometry x="300" y="790" width="30" height="30" as="geometry" />
        </mxCell>
        <mxCell id="69vqVkT_wPmjHlMa8236-53" value="IV" style="text;html=1;align=center;verticalAlign=middle;whiteSpace=wrap;rounded=0;fontFamily=Times New Roman;fontSize=14;" parent="1" vertex="1">
          <mxGeometry x="514" y="790" width="60" height="30" as="geometry" />
        </mxCell>
        <mxCell id="69vqVkT_wPmjHlMa8236-54" value="V" style="text;html=1;align=center;verticalAlign=middle;whiteSpace=wrap;rounded=0;fontFamily=Times New Roman;fontSize=14;" parent="1" vertex="1">
          <mxGeometry x="740" y="790" width="60" height="30" as="geometry" />
        </mxCell>
        <mxCell id="69vqVkT_wPmjHlMa8236-55" value="VII" style="text;html=1;align=center;verticalAlign=middle;whiteSpace=wrap;rounded=0;fontFamily=Times New Roman;fontSize=14;" parent="1" vertex="1">
          <mxGeometry x="50" y="990" width="60" height="30" as="geometry" />
        </mxCell>
        <mxCell id="69vqVkT_wPmjHlMa8236-56" value="VIII" style="text;html=1;align=center;verticalAlign=middle;whiteSpace=wrap;rounded=0;fontFamily=Times New Roman;fontSize=14;" parent="1" vertex="1">
          <mxGeometry x="280" y="990" width="60" height="30" as="geometry" />
        </mxCell>
        <mxCell id="69vqVkT_wPmjHlMa8236-57" value="X" style="text;html=1;align=center;verticalAlign=middle;whiteSpace=wrap;rounded=0;fontFamily=Times New Roman;fontSize=14;" parent="1" vertex="1">
          <mxGeometry x="514" y="990" width="60" height="30" as="geometry" />
        </mxCell>
        <mxCell id="69vqVkT_wPmjHlMa8236-58" value="XI" style="text;html=1;align=center;verticalAlign=middle;whiteSpace=wrap;rounded=0;fontFamily=Times New Roman;fontSize=14;" parent="1" vertex="1">
          <mxGeometry x="740" y="990" width="60" height="30" as="geometry" />
        </mxCell>
        <mxCell id="69vqVkT_wPmjHlMa8236-59" value="2" style="ellipse;whiteSpace=wrap;html=1;aspect=fixed;fontFamily=Times New Roman;fontSize=14;" parent="1" vertex="1">
          <mxGeometry x="220" y="1180" width="40" height="40" as="geometry" />
        </mxCell>
        <mxCell id="69vqVkT_wPmjHlMa8236-61" value="Конец" style="ellipse;whiteSpace=wrap;html=1;fontFamily=Times New Roman;fontSize=14;" parent="1" vertex="1">
          <mxGeometry x="160" y="1260" width="160" height="60" as="geometry" />
        </mxCell>
        <mxCell id="69vqVkT_wPmjHlMa8236-66" value="" style="endArrow=classic;html=1;rounded=0;" parent="1" edge="1">
          <mxGeometry width="50" height="50" relative="1" as="geometry">
            <mxPoint x="820" y="620" as="sourcePoint" />
            <mxPoint x="640" y="620" as="targetPoint" />
          </mxGeometry>
        </mxCell>
        <mxCell id="69vqVkT_wPmjHlMa8236-67" value="" style="endArrow=none;html=1;rounded=0;" parent="1" edge="1">
          <mxGeometry width="50" height="50" relative="1" as="geometry">
            <mxPoint y="920" as="sourcePoint" />
            <mxPoint x="150" y="920" as="targetPoint" />
          </mxGeometry>
        </mxCell>
        <mxCell id="69vqVkT_wPmjHlMa8236-68" value="" style="endArrow=none;html=1;rounded=0;" parent="1" edge="1">
          <mxGeometry width="50" height="50" relative="1" as="geometry">
            <mxPoint x="10" y="1120" as="sourcePoint" />
            <mxPoint x="150" y="1120" as="targetPoint" />
            <Array as="points">
              <mxPoint x="80" y="1120" />
            </Array>
          </mxGeometry>
        </mxCell>
        <mxCell id="69vqVkT_wPmjHlMa8236-69" value="" style="endArrow=classic;html=1;rounded=0;" parent="1" edge="1">
          <mxGeometry width="50" height="50" relative="1" as="geometry">
            <mxPoint x="1000" y="920" as="sourcePoint" />
            <mxPoint x="840" y="920" as="targetPoint" />
          </mxGeometry>
        </mxCell>
        <mxCell id="6biEKYgZ3R6q3eRvqjgb-1" value="4" style="ellipse;whiteSpace=wrap;html=1;aspect=fixed;" vertex="1" parent="1">
          <mxGeometry x="-30" y="900" width="40" height="40" as="geometry" />
        </mxCell>
        <mxCell id="6biEKYgZ3R6q3eRvqjgb-3" value="4" style="ellipse;whiteSpace=wrap;html=1;aspect=fixed;" vertex="1" parent="1">
          <mxGeometry x="800" y="600" width="40" height="40" as="geometry" />
        </mxCell>
        <mxCell id="6biEKYgZ3R6q3eRvqjgb-5" value="5" style="ellipse;whiteSpace=wrap;html=1;aspect=fixed;" vertex="1" parent="1">
          <mxGeometry x="980" y="900" width="40" height="40" as="geometry" />
        </mxCell>
        <mxCell id="6biEKYgZ3R6q3eRvqjgb-6" value="Неверный символ" style="shape=document;whiteSpace=wrap;html=1;boundedLbl=1;fontFamily=Times New Roman;fontSize=14;" vertex="1" parent="1">
          <mxGeometry x="860" y="480" width="160" height="80" as="geometry" />
        </mxCell>
        <mxCell id="6biEKYgZ3R6q3eRvqjgb-11" value="" style="endArrow=classic;html=1;rounded=0;" edge="1" parent="1">
          <mxGeometry width="50" height="50" relative="1" as="geometry">
            <mxPoint x="940" y="650" as="sourcePoint" />
            <mxPoint x="240" y="650" as="targetPoint" />
          </mxGeometry>
        </mxCell>
        <mxCell id="6biEKYgZ3R6q3eRvqjgb-12" value="нет&amp;nbsp;" style="text;html=1;align=center;verticalAlign=middle;whiteSpace=wrap;rounded=0;" vertex="1" parent="1">
          <mxGeometry x="300" y="390" width="60" height="30" as="geometry" />
        </mxCell>
        <mxCell id="6biEKYgZ3R6q3eRvqjgb-13" value="да" style="text;html=1;align=center;verticalAlign=middle;whiteSpace=wrap;rounded=0;" vertex="1" parent="1">
          <mxGeometry x="190" y="450" width="60" height="30" as="geometry" />
        </mxCell>
        <mxCell id="6biEKYgZ3R6q3eRvqjgb-14" value="" style="endArrow=none;html=1;rounded=0;" edge="1" parent="1">
          <mxGeometry width="50" height="50" relative="1" as="geometry">
            <mxPoint x="320" y="416" as="sourcePoint" />
            <mxPoint x="940" y="420" as="targetPoint" />
          </mxGeometry>
        </mxCell>
        <mxCell id="6biEKYgZ3R6q3eRvqjgb-15" value="" style="endArrow=classic;html=1;rounded=0;" edge="1" parent="1" target="6biEKYgZ3R6q3eRvqjgb-6">
          <mxGeometry width="50" height="50" relative="1" as="geometry">
            <mxPoint x="940" y="420" as="sourcePoint" />
            <mxPoint x="990" y="370" as="targetPoint" />
          </mxGeometry>
        </mxCell>
        <mxCell id="6biEKYgZ3R6q3eRvqjgb-16" value="" style="endArrow=none;html=1;rounded=0;" edge="1" parent="1">
          <mxGeometry width="50" height="50" relative="1" as="geometry">
            <mxPoint x="940" y="550" as="sourcePoint" />
            <mxPoint x="940" y="650" as="targetPoint" />
          </mxGeometry>
        </mxCell>
        <mxCell id="6biEKYgZ3R6q3eRvqjgb-17" value="" style="endArrow=none;html=1;rounded=0;" edge="1" parent="1">
          <mxGeometry width="50" height="50" relative="1" as="geometry">
            <mxPoint x="149.5" y="1090" as="sourcePoint" />
            <mxPoint x="149.5" y="1120" as="targetPoint" />
          </mxGeometry>
        </mxCell>
        <mxCell id="6biEKYgZ3R6q3eRvqjgb-4" value="5" style="ellipse;whiteSpace=wrap;html=1;aspect=fixed;" vertex="1" parent="1">
          <mxGeometry x="-30" y="1100" width="40" height="40" as="geometry" />
        </mxCell>
        <mxCell id="6biEKYgZ3R6q3eRvqjgb-19" value="" style="endArrow=none;html=1;rounded=0;" edge="1" parent="1">
          <mxGeometry width="50" height="50" relative="1" as="geometry">
            <mxPoint x="380" y="1090" as="sourcePoint" />
            <mxPoint x="380" y="1120" as="targetPoint" />
          </mxGeometry>
        </mxCell>
        <mxCell id="6biEKYgZ3R6q3eRvqjgb-20" value="" style="endArrow=none;html=1;rounded=0;" edge="1" parent="1">
          <mxGeometry width="50" height="50" relative="1" as="geometry">
            <mxPoint x="610" y="1090" as="sourcePoint" />
            <mxPoint x="610" y="1120" as="targetPoint" />
          </mxGeometry>
        </mxCell>
        <mxCell id="6biEKYgZ3R6q3eRvqjgb-21" value="" style="endArrow=none;html=1;rounded=0;" edge="1" parent="1">
          <mxGeometry width="50" height="50" relative="1" as="geometry">
            <mxPoint x="840" y="1090" as="sourcePoint" />
            <mxPoint x="840" y="1120" as="targetPoint" />
          </mxGeometry>
        </mxCell>
        <mxCell id="6biEKYgZ3R6q3eRvqjgb-22" value="" style="endArrow=none;html=1;rounded=0;" edge="1" parent="1">
          <mxGeometry width="50" height="50" relative="1" as="geometry">
            <mxPoint x="10" y="980" as="sourcePoint" />
            <mxPoint x="840" y="980" as="targetPoint" />
          </mxGeometry>
        </mxCell>
        <mxCell id="6biEKYgZ3R6q3eRvqjgb-23" value="" style="endArrow=classic;html=1;rounded=0;entryX=0.5;entryY=0;entryDx=0;entryDy=0;" edge="1" parent="1" target="69vqVkT_wPmjHlMa8236-26">
          <mxGeometry width="50" height="50" relative="1" as="geometry">
            <mxPoint x="150" y="980" as="sourcePoint" />
            <mxPoint x="200" y="930" as="targetPoint" />
          </mxGeometry>
        </mxCell>
        <mxCell id="6biEKYgZ3R6q3eRvqjgb-24" value="" style="endArrow=classic;html=1;rounded=0;entryX=0.5;entryY=0;entryDx=0;entryDy=0;" edge="1" parent="1" target="69vqVkT_wPmjHlMa8236-28">
          <mxGeometry width="50" height="50" relative="1" as="geometry">
            <mxPoint x="380" y="980" as="sourcePoint" />
            <mxPoint x="430" y="930" as="targetPoint" />
          </mxGeometry>
        </mxCell>
        <mxCell id="6biEKYgZ3R6q3eRvqjgb-25" value="" style="endArrow=classic;html=1;rounded=0;entryX=0.5;entryY=0;entryDx=0;entryDy=0;" edge="1" parent="1" target="69vqVkT_wPmjHlMa8236-30">
          <mxGeometry width="50" height="50" relative="1" as="geometry">
            <mxPoint x="610" y="980" as="sourcePoint" />
            <mxPoint x="660" y="930" as="targetPoint" />
          </mxGeometry>
        </mxCell>
        <mxCell id="6biEKYgZ3R6q3eRvqjgb-26" value="" style="endArrow=classic;html=1;rounded=0;entryX=0.5;entryY=0;entryDx=0;entryDy=0;" edge="1" parent="1" target="69vqVkT_wPmjHlMa8236-32">
          <mxGeometry width="50" height="50" relative="1" as="geometry">
            <mxPoint x="840" y="980" as="sourcePoint" />
            <mxPoint x="890" y="930" as="targetPoint" />
          </mxGeometry>
        </mxCell>
        <mxCell id="6biEKYgZ3R6q3eRvqjgb-28" value="" style="endArrow=classic;html=1;rounded=0;entryX=0;entryY=0.5;entryDx=0;entryDy=0;" edge="1" parent="1" target="69vqVkT_wPmjHlMa8236-23">
          <mxGeometry width="50" height="50" relative="1" as="geometry">
            <mxPoint x="10" y="780" as="sourcePoint" />
            <mxPoint x="60" y="730" as="targetPoint" />
          </mxGeometry>
        </mxCell>
        <mxCell id="6biEKYgZ3R6q3eRvqjgb-29" value="" style="endArrow=none;html=1;rounded=0;" edge="1" parent="1">
          <mxGeometry width="50" height="50" relative="1" as="geometry">
            <mxPoint x="152" y="890" as="sourcePoint" />
            <mxPoint x="152" y="920" as="targetPoint" />
          </mxGeometry>
        </mxCell>
        <mxCell id="6biEKYgZ3R6q3eRvqjgb-30" value="" style="endArrow=none;html=1;rounded=0;" edge="1" parent="1">
          <mxGeometry width="50" height="50" relative="1" as="geometry">
            <mxPoint x="380" y="920" as="sourcePoint" />
            <mxPoint x="380" y="890" as="targetPoint" />
          </mxGeometry>
        </mxCell>
        <mxCell id="6biEKYgZ3R6q3eRvqjgb-31" value="" style="endArrow=none;html=1;rounded=0;" edge="1" parent="1">
          <mxGeometry width="50" height="50" relative="1" as="geometry">
            <mxPoint x="610" y="920" as="sourcePoint" />
            <mxPoint x="610" y="890" as="targetPoint" />
          </mxGeometry>
        </mxCell>
        <mxCell id="6biEKYgZ3R6q3eRvqjgb-32" value="" style="endArrow=none;html=1;rounded=0;" edge="1" parent="1">
          <mxGeometry width="50" height="50" relative="1" as="geometry">
            <mxPoint x="840" y="920" as="sourcePoint" />
            <mxPoint x="840" y="890" as="targetPoint" />
          </mxGeometry>
        </mxCell>
        <mxCell id="6biEKYgZ3R6q3eRvqjgb-33" value="" style="endArrow=classic;html=1;rounded=0;entryX=0.5;entryY=0;entryDx=0;entryDy=0;" edge="1" parent="1" target="69vqVkT_wPmjHlMa8236-61">
          <mxGeometry width="50" height="50" relative="1" as="geometry">
            <mxPoint x="240" y="1220" as="sourcePoint" />
            <mxPoint x="290" y="1170" as="targetPoint" />
          </mxGeometry>
        </mxCell>
      </root>
    </mxGraphModel>
  </diagram>
</mxfile>
